<svg xmlns="http://www.w3.org/2000/svg" viewBox="0 0 152.67 73.95"><defs><style>.cls-1{fill:#16254e;stroke:#16254e;stroke-miterlimit:10;stroke-width:0.25px;}.cls-2,.cls-3{fill:#1c2752;}.cls-2{fill-rule:evenodd;}</style></defs><g id="Layer_2" data-name="Layer 2"><g id="圖層_1" data-name="圖層 1"><path class="cls-1" d="M48.83,66.84a10.07,10.07,0,0,1-.61,1.61v5.31h-.77v-4c-.16.22-.33.45-.51.67l-.27-.85a9,9,0,0,0,1.45-3.07Zm4.35,2.56h.63v1h-.68a6.47,6.47,0,0,1,.59.56l-.45.46a5.22,5.22,0,0,0-.65-.72.68.68,0,0,1-.23.47,1.18,1.18,0,0,1-.56.11H50.9l-.18.21h2.19V72a2.83,2.83,0,0,1-.87.8,7.73,7.73,0,0,0,1.9.29l-.18.67a7,7,0,0,1-2.52-.58,11.81,11.81,0,0,1-2.37.6l-.27-.65a14.22,14.22,0,0,0,1.88-.37,6.55,6.55,0,0,1-.63-.49c-.22.15-.48.31-.77.48l-.37-.59a4,4,0,0,0,1.54-1.07.48.48,0,0,1-.13-.35V70.1h.69v.5a.12.12,0,0,0,.13.13h.78a.36.36,0,0,0,.2-.06s.09-.15.11-.36l.43.14.36-.33a2.31,2.31,0,0,1,.24.2v-.38H51.5a2.34,2.34,0,0,1,.4.44l-.49.23a3.19,3.19,0,0,0-.46-.55l.36-.12H49.48v.41a1.49,1.49,0,0,1,.17-.18l.43.38a3.9,3.9,0,0,1-.92.89l-.4-.51a3.41,3.41,0,0,0,.69-.55h-.71v-1h.61V67.54h1.3c0-.07.05-.14.07-.21H48.93v-.62h4.71v.62H51.52a1.66,1.66,0,0,1-.06.21h1.72Zm-.73-1.19V68H50.08v.19Zm0,.59v-.17H50.08v.17Zm0,.6v-.19H50.08v.19ZM52,72H50.46a4.7,4.7,0,0,0,.78.46A3.51,3.51,0,0,0,52,72Z"/><path class="cls-1" d="M67.63,69.62l-.55-.6a1.64,1.64,0,0,0,.42-1.13V66.77a19.69,19.69,0,0,0,2.85-.23l.35.64a19.75,19.75,0,0,1-2.46.2v.31H70.6v.66h-.83v.81H69v-.81H68.2A2.44,2.44,0,0,1,67.63,69.62Zm3.45-.3h2.28v3.31H72a17,17,0,0,1,2.1.51l-.26.64a16.16,16.16,0,0,0-2.53-.64l.25-.51H69.71l.33.45a8.43,8.43,0,0,1-2.36.68l-.36-.62a10.17,10.17,0,0,0,2.19-.51H68.1V69.32h2.78l-.46-.5a1.37,1.37,0,0,0,.51-1v-1a18.15,18.15,0,0,0,2.82-.22l.35.64a23.66,23.66,0,0,1-2.42.2v.33h2.43v.66h-.94v.79H72.4v-.79h-.82A2.44,2.44,0,0,1,71.08,69.32Zm1.45,1V70H68.92v.31Zm0,.86V70.8H68.92v.33Zm0,.53H68.92V72h3.61Z"/><path class="cls-1" d="M91.47,67.82h2.39v.62a9.05,9.05,0,0,1-3.8,3.85,1.8,1.8,0,0,0,1.12.47l1.56,0c.42,0,1,0,1.72,0l-.21.8H92.87l-1.49,0a2.59,2.59,0,0,1-1.93-.71c-.17-.18-.3-.27-.41-.27s-.43.4-.85,1.19l-.65-.45c.53-1.06,1-1.58,1.51-1.58a.68.68,0,0,1,.29.06l.07,0a8.81,8.81,0,0,0,3.45-3.16H88v-.8h2.53a7.84,7.84,0,0,0-.68-1.16l.94-.15A13.33,13.33,0,0,1,91.47,67.82Z"/><path class="cls-1" d="M114.8,69.5v.68h-3.43v3.58h-.79v-.63c-.61.1-1.47.18-2.6.27l-.1-.69.64,0v-2.5h-.65V69.5Zm-.89-.31h-.79V67.38h-3.54v1.83h-.78V66.77h5.11Zm-3.33,1.38v-.39h-1.29v.39Zm0,1v-.42h-1.29v.42Zm0,.92v-.34h-1.29v.48C109.78,72.59,110.21,72.54,110.58,72.49Zm2.31-3.9v.53h-3.07v-.53Zm0-.85v.53h-3v-.53Zm-1.23,3.42v-.67h2.74v.63a3.47,3.47,0,0,1-.69,1.4,6,6,0,0,0,1.13.6l-.41.67a6.26,6.26,0,0,1-1.24-.75,5.35,5.35,0,0,1-1.34.74l-.41-.63a4.52,4.52,0,0,0,1.2-.63,3.54,3.54,0,0,1-.73-1.36Zm2,0H112.6a2.26,2.26,0,0,0,.54.88A2.81,2.81,0,0,0,113.65,71.16Z"/><path class="cls-2" d="M138.75,47.89l-.58.78h14a55.88,55.88,0,0,1-.59,7.12,36.27,36.27,0,0,1-.72,4.19,3.35,3.35,0,0,1-1.39,1.56c-.76.55-2.35,1-4.77,1.26a7.91,7.91,0,0,0-1.35-4.18,27.65,27.65,0,0,1-5,4.42,11.15,11.15,0,0,0-4.26-2.39q5.85-3.57,7.87-8.16h-.91q-2.38,5-9.56,9.12a11.58,11.58,0,0,0-3.41-3.13c3.9-1.67,6.69-3.67,8.34-6h-.83a25,25,0,0,1-6.82,5.06c-.52-1.06-1.83-1.92-3.93-2.56a19.18,19.18,0,0,0,4-2l-.07-.07L120.53,56l-.87-5.34,3.83-.82V42.71h-3.37V38.28h3.37V32.46c0-.11-.11-.22-.32-.33a.48.48,0,0,1-.3-.45c0-.28.19-.42.58-.42h4.77v7h3.33v4.43h-3.33v6.13l3.43-.85v2a12.32,12.32,0,0,0,1.86-2.07h-4v-4h23.2v4Zm8.76,4.6h-1a14.4,14.4,0,0,1-2.54,5.1,8.65,8.65,0,0,0,1,.06,1.84,1.84,0,0,0,2.17-2A15.66,15.66,0,0,0,147.51,52.49Zm1.71-20.77v11.5H132.57V31.72ZM137.3,35.9h7.19v-.64H137.3Zm0,4h7.19v-.76H137.3Z"/><path class="cls-3" d="M53.22,12.28v3h-2.4V27.48h-4V15.32H44.39v-3Z"/><path class="cls-3" d="M57.9,12.28V15.7A3.45,3.45,0,0,1,59,15a3.37,3.37,0,0,1,1.24-.23,2.94,2.94,0,0,1,1.74.52,2,2,0,0,1,.86,1.16A11.13,11.13,0,0,1,63,18.89v8.59H59.11V18.71a5.53,5.53,0,0,0-.11-1.4.47.47,0,0,0-.5-.31.45.45,0,0,0-.47.32,3.9,3.9,0,0,0-.13,1.27v8.89H54V12.28Z"/><path class="cls-3" d="M73.09,21.47h-5v2.7a2.91,2.91,0,0,0,.13,1.08.5.5,0,0,0,.48.25.61.61,0,0,0,.6-.33,3.71,3.71,0,0,0,.14-1.25V22.28h3.67v.92A8.11,8.11,0,0,1,73,25a3.51,3.51,0,0,1-.7,1.33,3.38,3.38,0,0,1-1.39,1.05,5.36,5.36,0,0,1-2.1.35,6.3,6.3,0,0,1-2.17-.34,3.48,3.48,0,0,1-1.46-1,3.27,3.27,0,0,1-.72-1.33A8.13,8.13,0,0,1,64.2,23V19.32a6.1,6.1,0,0,1,.45-2.58,3.11,3.11,0,0,1,1.48-1.45,5.35,5.35,0,0,1,2.36-.5,5.28,5.28,0,0,1,2.69.61A3.35,3.35,0,0,1,72.67,17a7.43,7.43,0,0,1,.42,2.8Zm-3.88-2v-.91a4.12,4.12,0,0,0-.11-1.25.4.4,0,0,0-.43-.28c-.26,0-.43.08-.5.24a4.94,4.94,0,0,0-.1,1.29v.91Z"/><path class="cls-3" d="M85.62,12.28l2.31,15.2H83.8l-.22-2.73H82.14l-.24,2.73H77.72l2.06-15.2Zm-2.14,9.77c-.2-1.72-.41-3.85-.61-6.39q-.63,4.38-.78,6.39Z"/><path class="cls-3" d="M97.37,15V27.48H93.43l.07-1a2.59,2.59,0,0,1-1,.95,2.8,2.8,0,0,1-1.35.31,3,3,0,0,1-1.45-.3,2,2,0,0,1-.85-.79,3,3,0,0,1-.35-1.05c0-.35-.06-1.07-.06-2.14V15h3.88V23.5a8.86,8.86,0,0,0,.09,1.73c.06.18.23.27.49.27s.47-.09.51-.28a9.65,9.65,0,0,0,.09-1.82V15Z"/><path class="cls-3" d="M102.85,13.36v2h1.05v2h-1.05V24a3.71,3.71,0,0,0,.13,1.38,2.21,2.21,0,0,0,1.08.14v2H102.5a11.46,11.46,0,0,1-1.89-.11,2,2,0,0,1-1-.5,1.61,1.61,0,0,1-.54-.89,15.75,15.75,0,0,1-.1-2.36V17.28h-.84v-2H99v-2Z"/><path class="cls-3" d="M113.52,19.4v3a11.4,11.4,0,0,1-.18,2.47,3.41,3.41,0,0,1-.73,1.46,3.32,3.32,0,0,1-1.45,1,6.17,6.17,0,0,1-2,.32,7.19,7.19,0,0,1-2.17-.28,2.94,2.94,0,0,1-1.39-.83,3.24,3.24,0,0,1-.71-1.35,10.56,10.56,0,0,1-.21-2.38v-3.2A7.55,7.55,0,0,1,105,17a3.12,3.12,0,0,1,1.38-1.57,5,5,0,0,1,2.55-.59,6,6,0,0,1,2.24.38,3.68,3.68,0,0,1,1.44,1,3.61,3.61,0,0,1,.7,1.26A7.88,7.88,0,0,1,113.52,19.4Zm-3.88-.95a4.1,4.1,0,0,0-.1-1.2.45.45,0,0,0-.45-.25.46.46,0,0,0-.46.25,3.3,3.3,0,0,0-.12,1.2v5.63a3.21,3.21,0,0,0,.12,1.15.44.44,0,0,0,.45.27.45.45,0,0,0,.45-.25,2.93,2.93,0,0,0,.11-1.05Z"/><path class="cls-3" d="M118.62,15l-.07,1.19a3.08,3.08,0,0,1,1.08-1,2.88,2.88,0,0,1,3.87,1,3.31,3.31,0,0,1,1.1-1,2.63,2.63,0,0,1,1.36-.36,2.71,2.71,0,0,1,1.63.47,2.06,2.06,0,0,1,.83,1.15,9,9,0,0,1,.19,2.21v8.86h-3.76V19.36a10.31,10.31,0,0,0-.11-2,.55.55,0,0,0-1,0,9.2,9.2,0,0,0-.12,2v8.12h-3.76V19.56a14.49,14.49,0,0,0-.09-2.2.46.46,0,0,0-.51-.36.54.54,0,0,0-.43.19.75.75,0,0,0-.21.47c0,.19,0,.58,0,1.18v8.64h-3.76V15Z"/><path class="cls-3" d="M133.4,19.84h-3.63V19a5.73,5.73,0,0,1,.34-2.23,3,3,0,0,1,1.36-1.38,5.17,5.17,0,0,1,2.67-.61,5.29,5.29,0,0,1,3,.68,2.63,2.63,0,0,1,1.2,1.68,24.45,24.45,0,0,1,.21,4.07v6.26h-3.78V26.37a2.47,2.47,0,0,1-.91,1,2.61,2.61,0,0,1-1.34.33,3.3,3.3,0,0,1-1.86-.55c-.57-.38-.85-1.19-.85-2.45v-1a3,3,0,0,1,.44-1.91,6.48,6.48,0,0,1,2.24-1.18,6.14,6.14,0,0,0,2-1,2.35,2.35,0,0,0,.14-1,3.31,3.31,0,0,0-.15-1.27A.49.49,0,0,0,134,17c-.26,0-.43.09-.49.25a4.6,4.6,0,0,0-.1,1.29Zm1.23,1.72a2.82,2.82,0,0,0-1.08,1.11A4.28,4.28,0,0,0,133.4,24a3.67,3.67,0,0,0,.13,1.26.5.5,0,0,0,.52.28.48.48,0,0,0,.47-.22,3.68,3.68,0,0,0,.11-1.17Z"/><path class="cls-3" d="M143.83,12.28v15.2h-4V12.28Z"/><path class="cls-3" d="M149.21,12.28v15.2h-4V12.28Z"/><path class="cls-2" d="M.58,60.17S0,63,0,63c7.06,0,13.28-.1,18.94-.1,6.32,0,16.27.1,23.23.1,0,0,.53-2.91.5-2.89S29.54,60,30.4,54.44C31.11,49.88,38.86,2,38.93,1.58,39.2-.12,38-.66,35.78,1c-2.39,1.8-8.89,6.91-25.71,13.24a24,24,0,0,1-.5,3c1.76-.22,8.08-.81,9.82-1.08-1.56,10.09-3.92,25.53-5.92,37.74C12.79,58,.58,60.17.58,60.17Z"/><path class="cls-2" d="M63.94,45.44H61.75v6.23c-.2,2.86-.37,4.71-.48,5.55A9.61,9.61,0,0,1,60.4,60l.07.07q2.63-2.13,2.63-9.71l3.93.33q.18,9.1-3.43,12.17a6.45,6.45,0,0,0-3.53-2.19,9.05,9.05,0,0,1-1.38,2.25c-1.85-1.55-3.14-2.35-3.87-2.38A10.64,10.64,0,0,0,57,55.68,49.9,49.9,0,0,0,57.44,48V37.69h6.09v-5a.49.49,0,0,0-.28-.44.47.47,0,0,1-.29-.42c0-.29.26-.44.76-.44H68V33h7v3.71H68v1h8.09v6.18H72V41.4H68.24v.87h3.35v3.17H68.24v.42c0,.15.09.22.25.22h3.35c.47,0,.75-.49.84-1.46A7.88,7.88,0,0,0,76.4,46c-.66,2.54-1.69,3.82-3.1,3.82H66.16a2,2,0,0,1-1.59-.92,3.27,3.27,0,0,1-.63-1.8Zm0-4H61.75v.87h2.19Zm-7.65-8.89v10H45.61v-10Zm-4.13,6.26V36.42H49.72v2.35ZM54.9,49.39l1.35.79L55.34,59a4.8,4.8,0,0,1-1.62,2.78,6.46,6.46,0,0,1-3.6,1.14l-.74.09a3.64,3.64,0,0,1-1,0,7.11,7.11,0,0,0-1.78-4.53q2,.12,2.31.12c1.26,0,1.93-.27,2-.8l.59-4.56H50l-.41,1.49A27.77,27.77,0,0,0,45,54.33c.83-3,1.38-5.24,1.68-6.78H44.39V43.4H57.16v4.15H51.32l-.5,1.84Zm17.13,1v7.49c0,.19.08.28.22.28h.21c.44,0,.71-1,.8-3.1a6.72,6.72,0,0,0,3.8,1c-.11,2.67-.46,4.39-1,5.18a2.49,2.49,0,0,1-2.1,1.17H70.45a2.72,2.72,0,0,1-1.76-.62,2.11,2.11,0,0,1-.78-1.74V50.44Z"/><path class="cls-2" d="M114.49,58.75H100.7V63H95.57V58.75H82V54.32H95.57V53.24H85.41V39.09H95.57v-1H83.05v-4.3H95.57V32.61c0-.15-.11-.28-.35-.41s-.36-.28-.36-.45.26-.48.81-.48h5v2.56h12.58v4.3H100.7v1h10.06V53.24H100.7v1.08h13.79Zm-8.73-15.57H100.7v1.08h5.06Zm-10.19,0H90.29v1.08h5.28Zm10.19,5H100.7v1.13h5.06Zm-10.19,0H90.29v1.13h5.28Z"/></g></g></svg>