<svg xmlns="http://www.w3.org/2000/svg" width="110" height="67.328" viewBox="0 0 110 67.328">
  <g id="logo" transform="translate(0 0.3)">
    <g id="Group_1" data-name="Group 1" transform="translate(0 28.417)">
      <path id="Path_1" data-name="Path 1" d="M11.818,91.43c.038-.038.077-.038.077.038-.231.847-1.886,2.733-5,2.733A6.678,6.678,0,0,1,0,87.388a6.508,6.508,0,0,1,6.814-6.66,10.109,10.109,0,0,1,4.542,1.116s-.038,3-.038,3.041c0,.077-.038.077-.038.038-.847-1.963-2.31-3.542-4.581-3.542-2.733,0-4.7,2.541-4.7,5.389,0,3.465,2.926,6.39,5.774,6.39A5.712,5.712,0,0,0,11.818,91.43Zm97.393,0V80.767s0-.077-.038-.077c-.346.077-2.271.5-2.387.539-.154.038-.115.077-.077.115A2.09,2.09,0,0,1,107.325,83v7.314c0,.077,0,.192-.038.231a4.019,4.019,0,0,1-3.888,2.849c-2.464,0-3.388-2.156-3.349-4.388V80.844s0-.077-.077-.038c-.385.077-2.31.385-2.387.423-.038,0-.077.038,0,.077a2.119,2.119,0,0,1,.577,1.386v5.5c-.115,5.5,3.388,5.928,5.312,5.928a6.168,6.168,0,0,0,3.811-1.424c.038-.038.077,0,.077.038s.077.885.115,1.155c0,.077,0,.077.077.077.385-.077,2.194-.423,2.387-.462.077,0,.077-.077,0-.115C109.75,93.278,109.211,92.893,109.211,91.43Zm-94.236.693.038-17.708a.038.038,0,0,0-.038-.038h-.115l-2.079.385a2.073,2.073,0,0,1-.308.038c-.115.038-.077.115,0,.115s.231.192.231.192a2.062,2.062,0,0,1,.385,1.54V92.354a2.486,2.486,0,0,1-.654,1.617c-.038.038-.038.077,0,.077h3.349c.038,0,.038-.038,0-.077A2.134,2.134,0,0,1,14.975,92.123Zm30.334-.346c0-.847-.038-14.551-.038-14.551V74.377a.075.075,0,0,0-.077-.077c-.462.077-2.695.462-2.772.462s-.077.077,0,.115a2.116,2.116,0,0,1,.346.269,2.175,2.175,0,0,1,.5,1.54v5.12s0,.115-.115.038a6.575,6.575,0,0,0-3.7-1.116,6.729,6.729,0,0,0-.231,13.435,3.6,3.6,0,0,0,3.58-2.233c0-.115-.038-.077-.077-.077a3.327,3.327,0,0,1-2.695,1.27c-2.618,0-5.158-2.271-5.158-6.429,0-2.695,1.617-5.312,4.581-5.312A3.866,3.866,0,0,1,43.269,85v7.353a2.1,2.1,0,0,1-.693,1.617c-.038.038-.038.077,0,.077h3.272c.038,0,.038-.038,0-.077A3.7,3.7,0,0,1,45.309,91.777Zm24.56-11.048a6.79,6.79,0,0,0-3.811,1.193c-.077.038-.077-.038-.077-.077s-.038-1.078-.038-1.078,0-.038-.077-.038c-.346.077-2.425.462-2.541.5s-.077.115,0,.154l.154.154a2.376,2.376,0,0,1,.5,1.5v15.9a1.99,1.99,0,0,1-.731,1.617c-.038.038-.038.077,0,.077h3.465c.038,0,.038-.077,0-.077-.5-.231-.731-.847-.731-2.194V84.424a.554.554,0,0,1,.077-.346A4.128,4.128,0,0,1,69.869,81.5c2.464,0,4.427,2.04,4.427,5.274,0,4.658-3.041,6.39-4.889,6.39a3.917,3.917,0,0,1-2.849-1.232c-.038-.038-.077-.038-.038.077.038.077.616,2.117,3.619,2.117s6.044-2.541,6.044-6.929A6.273,6.273,0,0,0,69.869,80.729ZM24.945,76.3H22.828a.169.169,0,0,0-.115.038c-.038.038-1.925,2.425-2.849,3.542-.038.038,0,.038,0,.038h.616c.038,0,.038,0,.038-.038.847-.654,4.35-3.5,4.388-3.542C24.945,76.34,24.983,76.3,24.945,76.3ZM20.9,91.469c.038.077.077.038.077-.038a5.652,5.652,0,0,1-.038-2c.5-2.541,2.464-3.619,6.2-5.389.077-.038.192-.038.115-.192a5.9,5.9,0,0,0-.885-1.232,5.32,5.32,0,0,0-4.08-1.848,5.905,5.905,0,0,0-5.967,6.2c0,4.427,3.08,7.122,6.429,7.122,2.964,0,4.5-1.848,4.7-2.656.038-.077,0-.115-.077-.077a4.964,4.964,0,0,1-3.426,1.694,5.873,5.873,0,0,1-5.7-6.121c0-2.926,1.424-5.62,3.965-5.62a3.446,3.446,0,0,1,2.964,1.925c.038.077.038.077-.038.115a1.129,1.129,0,0,1-.308.154C20.479,85.733,18.94,88.389,20.9,91.469Zm30.334,0c.038.077.077.038.077-.038a5.651,5.651,0,0,1-.038-2c.5-2.541,2.464-3.619,6.2-5.389.077-.038.192-.038.115-.192a5.9,5.9,0,0,0-.885-1.232,5.32,5.32,0,0,0-4.08-1.848,5.905,5.905,0,0,0-5.967,6.2c0,4.427,3.08,7.122,6.429,7.122,2.964,0,4.5-1.848,4.7-2.656.038-.077,0-.115-.077-.077a4.964,4.964,0,0,1-3.426,1.694,5.873,5.873,0,0,1-5.7-6.121c0-2.926,1.424-5.62,3.965-5.62a3.446,3.446,0,0,1,2.964,1.925c.038.077.038.077-.038.115a1.129,1.129,0,0,1-.308.154C50.814,85.733,49.274,88.389,51.237,91.469Zm34.838,1.347a4.035,4.035,0,0,1-1.386.269,5.873,5.873,0,0,1-5.7-6.121c0-2.926,1.424-5.62,3.965-5.62a3.446,3.446,0,0,1,2.964,1.925c.038.077.038.077-.038.115a1.129,1.129,0,0,1-.308.154c-4.427,2.194-5.928,4.85-4,7.93.038.077.077.038.077-.038a5.651,5.651,0,0,1-.038-2c.5-2.541,2.464-3.619,6.2-5.389.077-.038.192-.038.115-.192a5.9,5.9,0,0,0-.885-1.232,5.32,5.32,0,0,0-4.08-1.848,5.905,5.905,0,0,0-5.967,6.2c0,4.427,3.08,7.122,6.429,7.122a5.418,5.418,0,0,0,3.08-.847c.038-.038.038-.038.077,0a4.719,4.719,0,0,0,2.81.924c3.272,0,4.042-2.156,4.119-2.733,0-.115-.077-.077-.115,0a3.752,3.752,0,0,1-3.465,1.694,2.449,2.449,0,0,1-2.695-2.348c0-.346,0-2.04,2.618-2.464a9.6,9.6,0,0,0,3.965-1.193c.038-.038.077,0,.077.038v6.814c0,.115.038.115.115.115s2.233-.5,2.656-.577c.038,0,.038-.038,0-.077-.462-.154-.808-.693-.808-1.848V87.157c0-.885,0-1.809-.077-2.695a4.034,4.034,0,0,0-1.116-2.772,3.863,3.863,0,0,0-2.541-1,4.5,4.5,0,0,0-2.926,1c-.077.038,0,.115,0,.115l.654.924a.053.053,0,0,0,.077,0A2.471,2.471,0,0,1,92,81.422c.847,0,2.079.192,2.079,2.387a5.032,5.032,0,0,1-.192,1.617c-.385.962-.808,1.463-3.619,1.694a10.42,10.42,0,0,0-3.2.693,3,3,0,0,0-1.732,2.81,3.436,3.436,0,0,0,.654,2C86.075,92.7,86.114,92.778,86.075,92.816ZM22.481,112.872H24.29a3.654,3.654,0,0,0,1.617-.308,2.332,2.332,0,0,0,1.309-2.194,2.419,2.419,0,0,0-.654-1.655,2.776,2.776,0,0,0-.924-.577c-.038,0-.038-.038,0-.038a2.242,2.242,0,0,0,.962-1.809,1.941,1.941,0,0,0-1.116-1.809,3.24,3.24,0,0,0-1.5-.192h-1.54c-.038,0-.038,0-.038.038V112.8c.077.038.038.038.077.077Zm.693-8.007a.083.083,0,0,1,.077-.077H24.29a1.462,1.462,0,0,1,1.655,1.617,1.846,1.846,0,0,1-.847,1.54.226.226,0,0,1-.192.077H23.213c-.038,0-.038-.038-.038-.115S23.174,105.058,23.174,104.865Zm2.541,7.122a3.327,3.327,0,0,1-1.617.385h-.885c-.038,0-.038-.038-.038-.077v-3.734c0-.038,0-.038.038-.038,0,0,1.193-.038,1.694,0a1.731,1.731,0,0,1,1.617,1.848A2.2,2.2,0,0,1,25.715,111.987Zm31.913-7.738h.616c.038,0,.038,0,.038.038v4.773a5.841,5.841,0,0,0,.308,1.963,2.492,2.492,0,0,0,2.425,1.347c1.848,0,2.5-1,2.656-1.963a6.872,6.872,0,0,0,.115-1.347v-4.735c0-.038-.038-.077,0-.077h.462c.038,0,.038,0,.038.038v4.773a6.259,6.259,0,0,1-.308,2.117,3.055,3.055,0,0,1-3,1.732,3.3,3.3,0,0,1-2.733-1.193,5.043,5.043,0,0,1-.693-2.656v-4.735C57.55,104.249,57.589,104.249,57.627,104.249ZM34.068,112.8s.038-7.7.038-8.122v-.308c0-.038,0-.115.038-.115H38.11c.038,0,0,.038,0,.077v.462c0,.038,0,.038-.038.038-.192,0-.539-.038-.77-.038H34.8a.038.038,0,0,0-.038.038V108.1c0,.038,0,.038.038.038h3.118a.038.038,0,0,1,.038.038v.462c0,.038,0,.038-.038.038-.115,0-.231-.038-.462-.038H34.761c-.038,0-.038,0-.038.038v3.619c0,.038,0,.038.038.038H38.38c.038,0,.038.038,0,.038,0,0-.038.154-.077.269a.515.515,0,0,0-.038.192l-.038.038H33.991a.038.038,0,0,1-.038-.038C33.953,112.8,34.068,112.834,34.068,112.8Zm48.7,0s.038-7.7.038-8.122v-.308c0-.038,0-.115.038-.115h3.965c.039,0,0,.038,0,.077v.462c0,.038,0,.038-.038.038-.192,0-.539-.038-.77-.038H83.5a.038.038,0,0,0-.038.038V108.1c0,.038,0,.038.038.038h3.118a.038.038,0,0,1,.038.038v.462c0,.038,0,.038-.038.038-.115,0-.231-.038-.462-.038H83.458c-.038,0-.038,0-.038.038v3.58c0,.038,0,.038.038.038h3.619c.038,0,.038.038,0,.038,0,0-.038.154-.077.269a.515.515,0,0,0-.038.192l-.038.038H82.688a.038.038,0,0,1-.038-.038C82.649,112.757,82.765,112.834,82.765,112.8ZM71.1,104.249h5.736a.038.038,0,0,1,.038.038v.462c0,.038,0,.038-.038.038H73.911a.038.038,0,0,0-.038.038v8.007c0,.038,0,.077-.038.077h-.654v-8.045a.038.038,0,0,0-.038-.038H70.369l.038-.038a2.03,2.03,0,0,0,.115-.462c0-.038.038-.038.077-.038A1.6,1.6,0,0,1,71.1,104.249ZM86.229,101.9l.192.192a.119.119,0,0,0,.077.038c0,.038-.038.038-.077.077s-1.809,1.193-2,1.309l-.038.038c-.038.038-.038,0-.038,0v-.038l-.077-.077c-.038-.077-.038-.077-.077-.077H84.15c-.038,0,0-.038,0-.038a.038.038,0,0,0,.038-.038c.038-.038,1.5-1.27,1.732-1.5a.038.038,0,0,0,.038-.039.038.038,0,0,1,.038-.038c.038,0,.038.077.077.077C86.152,101.786,86.152,101.824,86.229,101.9ZM52.007,112.8c0-.038-.962-2.117-1.886-4.234-.962-2.156-1.925-4.35-1.925-4.388-.038-.038-.038-.077-.077-.077s-.077.077-.077.115c-.038.038-3.888,8.546-3.888,8.546a.038.038,0,0,1-.038.038.038.038,0,0,0-.038.038v.038h.5c.038,0,.038,0,.077-.038s1.386-3.118,1.386-3.157,0-.038.077-.038H49.7c.039,0,.039,0,.077.038s1.347,3.041,1.386,3.08c0,.038.038.115.077.115a.186.186,0,0,1,.154,0h.577C52.007,112.872,52.045,112.872,52.007,112.8Zm-2.5-3.619H46.387c-.077,0-.077-.077-.038-.077,0-.038,1.54-3.465,1.578-3.5q.058-.115.115,0c.038.038,1.5,3.465,1.54,3.542A.134.134,0,0,1,49.5,109.177Z" transform="translate(0 -74.3)"/>
    </g>
    <g id="Group_2" data-name="Group 2" transform="translate(44.731 -0.3)">
      <path id="Path_2" data-name="Path 2" d="M131.136-.185a5.464,5.464,0,0,1,5.312,4.042,8.231,8.231,0,0,1,.192,1.732c0,3.965-3.118,6.275-5.158,7.045a14.407,14.407,0,0,1-2.618.77.1.1,0,0,1-.038-.192,14.229,14.229,0,0,0,2.964-1.848A8.042,8.042,0,0,0,134.755,5.2c0-3-1.694-4.7-3.773-4.7a3.782,3.782,0,0,0-3.7,3.7c0,.115-.038,1.155-.038,2.5v8.122a3.6,3.6,0,0,0,.5,2,2.646,2.646,0,0,0,.808.885.092.092,0,0,1-.077.154,1.932,1.932,0,0,1-.462-.077,2.626,2.626,0,0,1-1.578-1.078H126.4a2.406,2.406,0,0,1-1.5,1.078,3.385,3.385,0,0,1-.539.077c-.077,0-.154-.115-.077-.154a2.372,2.372,0,0,0,.539-.539,3.609,3.609,0,0,0,.77-2.387V6.706c0-1.309-.038-2.194-.038-2.541a3.771,3.771,0,0,0-3.811-3.7,3.7,3.7,0,0,0-3.388,2.695,6.154,6.154,0,0,0-.308,2.04,8.14,8.14,0,0,0,3.041,6.2,11.322,11.322,0,0,0,2.887,1.732c.115.038.154.192-.077.154a9.115,9.115,0,0,1-2.233-.577A8.995,8.995,0,0,1,117.7,9.863,7.029,7.029,0,0,1,116.2,5.4a5.473,5.473,0,0,1,5.428-5.7A6.322,6.322,0,0,1,126.4,2.048a6.683,6.683,0,0,1,4.735-2.233" transform="translate(-116.2 0.3)"/>
    </g>
  </g>
</svg>
